<svg xmlns="http://www.w3.org/2000/svg" xmlns:xlink="http://www.w3.org/1999/xlink" viewBox="0 0 500 500" width="500" height="500" preserveAspectRatio="xMidYMid meet" style="width: 100%; height: 100%; transform: translate3d(0px, 0px, 0px); content-visibility: visible;"><defs><clipPath id="__lottie_element_10"><rect width="500" height="500" x="0" y="0"/></clipPath><clipPath id="__lottie_element_12"><path d="M0,0 L500,0 L500,500 L0,500z"/></clipPath><g id="__lottie_element_77"><g class="primary design" transform="matrix(-1,0,0,-1,250.00399780273438,250.0030059814453)" opacity="1" style="display: none;"><g opacity="1" transform="matrix(1,0,0,1,0,0)"><path stroke-linecap="round" stroke-linejoin="round" fill-opacity="0" class="primary" stroke="rgb(18,19,48)" stroke-opacity="1" stroke-width="0" d=" M192.65199279785156,-4.656000137329102 C195.2239990234375,101.74299621582031 111.05500030517578,190.0800018310547 4.656000137329102,192.65199279785156 C-101.74299621582031,195.2239990234375 -190.0800018310547,111.05500030517578 -192.65199279785156,4.656000137329102 C-195.2239990234375,-101.74299621582031 -111.05500030517578,-190.0800018310547 -4.656000137329102,-192.65199279785156 C101.74299621582031,-195.2239990234375 190.0800018310547,-111.05500030517578 192.65199279785156,-4.656000137329102z"/><path class="primary" fill="rgb(18,19,48)" fill-opacity="1" d=" M192.65199279785156,-4.656000137329102 C195.2239990234375,101.74299621582031 111.05500030517578,190.0800018310547 4.656000137329102,192.65199279785156 C-101.74299621582031,195.2239990234375 -190.0800018310547,111.05500030517578 -192.65199279785156,4.656000137329102 C-195.2239990234375,-101.74299621582031 -111.05500030517578,-190.0800018310547 -4.656000137329102,-192.65199279785156 C101.74299621582031,-195.2239990234375 190.0800018310547,-111.05500030517578 192.65199279785156,-4.656000137329102z"/></g></g></g><mask id="__lottie_element_77_1" mask-type="alpha"><use xmlns:ns1="http://www.w3.org/1999/xlink" ns1:href="#__lottie_element_77"/></mask></defs><g clip-path="url(#__lottie_element_10)"><g clip-path="url(#__lottie_element_12)" transform="matrix(1,0,0,1,0,0)" opacity="1" style="display: block;"><g class="primary design" transform="matrix(-1,0,0,-1,250.00399780273438,250.0030059814453)" opacity="1" style="display: none;"><g opacity="1" transform="matrix(1,0,0,1,0,0)"><path stroke-linecap="round" stroke-linejoin="round" fill-opacity="0" class="primary" stroke="rgb(18,19,48)" stroke-opacity="1" stroke-width="31.3" d=" M192.65199279785156,-4.656000137329102 C195.2239990234375,101.74299621582031 111.05500030517578,190.0800018310547 4.656000137329102,192.65199279785156 C-101.74299621582031,195.2239990234375 -190.0800018310547,111.05500030517578 -192.65199279785156,4.656000137329102 C-195.2239990234375,-101.74299621582031 -111.05500030517578,-190.0800018310547 -4.656000137329102,-192.65199279785156 C101.74299621582031,-195.2239990234375 190.0800018310547,-111.05500030517578 192.65199279785156,-4.656000137329102z"/></g></g><g mask="url(#__lottie_element_77_1)" style="display: none;"><g class="primary design" transform="matrix(-1,0,0,-1,249.99600219726562,261.5669860839844)" opacity="1"><g opacity="1" transform="matrix(1,0,0,1,0,0)"><path stroke-linecap="round" stroke-linejoin="round" fill-opacity="0" class="primary" stroke="rgb(18,19,48)" stroke-opacity="1" stroke-width="31.3" d=" M-83.33100128173828,41.65800094604492 C-83.33100128173828,41.65800094604492 -0.007000000216066837,-41.66699981689453 -0.007000000216066837,-41.66699981689453 C-0.007000000216066837,-41.66699981689453 83.33100128173828,41.66699981689453 83.33100128173828,41.66699981689453"/></g><g opacity="1" transform="matrix(1,0,0,1,0,-287)"><path stroke-linecap="round" stroke-linejoin="round" fill-opacity="0" class="primary" stroke="rgb(18,19,48)" stroke-opacity="1" stroke-width="31.3" d=" M-83.33100128173828,41.65800094604492 C-83.33100128173828,41.65800094604492 -0.007000000216066837,-41.66699981689453 -0.007000000216066837,-41.66699981689453 C-0.007000000216066837,-41.66699981689453 83.33100128173828,41.66699981689453 83.33100128173828,41.66699981689453"/></g><g opacity="1" transform="matrix(1,0,0,1,0,-287)"><path stroke-linecap="round" stroke-linejoin="round" fill-opacity="0" class="primary" stroke="rgb(18,19,48)" stroke-opacity="1" stroke-width="31.3" d=" M-83.33100128173828,41.65800094604492 C-83.33100128173828,41.65800094604492 -0.007000000216066837,-41.66699981689453 -0.007000000216066837,-41.66699981689453 C-0.007000000216066837,-41.66699981689453 83.33100128173828,41.66699981689453 83.33100128173828,41.66699981689453"/></g></g></g><g class="primary design" transform="matrix(-20.829999923706055,0,0,-20.829999923706055,5457.5029296875,5457.453125)" opacity="1" style="display: none;"><g opacity="1" transform="matrix(1,0,0,1,250,249.4499969482422)"><path class="primary" fill="rgb(18,19,48)" fill-opacity="1" d=" M4,2.740000009536743 C3.809999942779541,2.740000009536743 3.619999885559082,2.6700000762939453 3.4700000286102295,2.5199999809265137 C3.4700000286102295,2.5199999809265137 0,-0.9399999976158142 0,-0.9399999976158142 C0,-0.9399999976158142 -3.4700000286102295,2.5299999713897705 -3.4700000286102295,2.5299999713897705 C-3.759999990463257,2.819999933242798 -4.239999771118164,2.819999933242798 -4.53000020980835,2.5299999713897705 C-4.820000171661377,2.240000009536743 -4.820000171661377,1.7599999904632568 -4.53000020980835,1.4700000286102295 C-4.53000020980835,1.4700000286102295 -0.5299999713897705,-2.5299999713897705 -0.5299999713897705,-2.5299999713897705 C-0.23999999463558197,-2.819999933242798 0.23999999463558197,-2.819999933242798 0.5299999713897705,-2.5299999713897705 C0.5299999713897705,-2.5299999713897705 4.53000020980835,1.4700000286102295 4.53000020980835,1.4700000286102295 C4.820000171661377,1.7599999904632568 4.820000171661377,2.240000009536743 4.53000020980835,2.5299999713897705 C4.380000114440918,2.6700000762939453 4.190000057220459,2.740000009536743 4,2.740000009536743z"/></g><g opacity="1" transform="matrix(1,0,0,1,250,249.99899291992188)"><path class="primary" fill="rgb(18,19,48)" fill-opacity="1" d=" M-0.009999999776482582,10.00100040435791 C-2.5899999141693115,10.00100040435791 -5.03000020980835,9.031000137329102 -6.900000095367432,7.241000175476074 C-8.829999923706055,5.401000022888184 -9.930000305175781,2.9110000133514404 -10,0.2409999966621399 C-10.0600004196167,-2.428999900817871 -9.079999923706055,-4.959000110626221 -7.239999771118164,-6.89900016784668 C-5.400000095367432,-8.829000473022461 -2.9100000858306885,-9.928999900817871 -0.23999999463558197,-9.99899959564209 C2.4200000762939453,-10.059000015258789 4.96999979019165,-9.08899974822998 6.900000095367432,-7.238999843597412 C8.829999923706055,-5.39900016784668 9.930000305175781,-2.9089999198913574 10,-0.23899999260902405 C10,-0.23899999260902405 10,-0.23899999260902405 10,-0.23899999260902405 C10.0600004196167,2.430999994277954 9.09000015258789,4.9710001945495605 7.239999771118164,6.901000022888184 C5.400000095367432,8.831000328063965 2.9100000858306885,9.930999755859375 0.23999999463558197,10.00100040435791 C0.1599999964237213,10.00100040435791 0.07999999821186066,10.00100040435791 -0.009999999776482582,10.00100040435791z M0.009999999776482582,-8.49899959564209 C-0.05999999865889549,-8.49899959564209 -0.12999999523162842,-8.49899959564209 -0.20000000298023224,-8.49899959564209 C-2.4800000190734863,-8.439000129699707 -4.590000152587891,-7.508999824523926 -6.150000095367432,-5.859000205993652 C-7.71999979019165,-4.218999862670898 -8.550000190734863,-2.059000015258789 -8.489999771118164,0.210999995470047 C-8.4399995803833,2.4809999465942383 -7.5,4.591000080108643 -5.860000133514404,6.160999774932861 C-4.21999979019165,7.730999946594238 -2.049999952316284,8.560999870300293 0.20999999344348907,8.50100040435791 C2.4800000190734863,8.451000213623047 4.590000152587891,7.511000156402588 6.159999847412109,5.870999813079834 C7.730000019073486,4.230999946594238 8.5600004196167,2.071000099182129 8.5,-0.19900000095367432 C8.5,-0.19900000095367432 8.5,-0.19900000095367432 8.5,-0.19900000095367432 C8.449999809265137,-2.4690001010894775 7.510000228881836,-4.578999996185303 5.869999885559082,-6.14900016784668 C4.269999980926514,-7.669000148773193 2.200000047683716,-8.49899959564209 0.009999999776482582,-8.49899959564209z"/></g></g><g class="primary design" transform="matrix(-20.829999923706055,0,0,-20.829999923706055,5457.5029296875,5457.453125)" opacity="1" style="display: block;"><g opacity="1" transform="matrix(1,0,0,1,250,249.4499969482422)"><path class="primary" fill="rgb(18,19,48)" fill-opacity="1" d=" M4,2.740000009536743 C3.809999942779541,2.740000009536743 3.619999885559082,2.6700000762939453 3.4700000286102295,2.5199999809265137 C3.4700000286102295,2.5199999809265137 0,-0.9399999976158142 0,-0.9399999976158142 C0,-0.9399999976158142 -3.4700000286102295,2.5299999713897705 -3.4700000286102295,2.5299999713897705 C-3.759999990463257,2.819999933242798 -4.239999771118164,2.819999933242798 -4.53000020980835,2.5299999713897705 C-4.820000171661377,2.240000009536743 -4.820000171661377,1.7599999904632568 -4.53000020980835,1.4700000286102295 C-4.53000020980835,1.4700000286102295 -0.5299999713897705,-2.5299999713897705 -0.5299999713897705,-2.5299999713897705 C-0.23999999463558197,-2.819999933242798 0.23999999463558197,-2.819999933242798 0.5299999713897705,-2.5299999713897705 C0.5299999713897705,-2.5299999713897705 4.53000020980835,1.4700000286102295 4.53000020980835,1.4700000286102295 C4.820000171661377,1.7599999904632568 4.820000171661377,2.240000009536743 4.53000020980835,2.5299999713897705 C4.380000114440918,2.6700000762939453 4.190000057220459,2.740000009536743 4,2.740000009536743z"/></g><g opacity="1" transform="matrix(1,0,0,1,250,249.99899291992188)"><path class="primary" fill="rgb(18,19,48)" fill-opacity="1" d=" M-0.009999999776482582,10.00100040435791 C-2.5899999141693115,10.00100040435791 -5.03000020980835,9.031000137329102 -6.900000095367432,7.241000175476074 C-8.829999923706055,5.401000022888184 -9.930000305175781,2.9110000133514404 -10,0.2409999966621399 C-10.0600004196167,-2.428999900817871 -9.079999923706055,-4.959000110626221 -7.239999771118164,-6.89900016784668 C-5.400000095367432,-8.829000473022461 -2.9100000858306885,-9.928999900817871 -0.23999999463558197,-9.99899959564209 C2.4200000762939453,-10.059000015258789 4.96999979019165,-9.08899974822998 6.900000095367432,-7.238999843597412 C8.829999923706055,-5.39900016784668 9.930000305175781,-2.9089999198913574 10,-0.23899999260902405 C10,-0.23899999260902405 10,-0.23899999260902405 10,-0.23899999260902405 C10.0600004196167,2.430999994277954 9.09000015258789,4.9710001945495605 7.239999771118164,6.901000022888184 C5.400000095367432,8.831000328063965 2.9100000858306885,9.930999755859375 0.23999999463558197,10.00100040435791 C0.1599999964237213,10.00100040435791 0.07999999821186066,10.00100040435791 -0.009999999776482582,10.00100040435791z M0.009999999776482582,-8.49899959564209 C-0.05999999865889549,-8.49899959564209 -0.12999999523162842,-8.49899959564209 -0.20000000298023224,-8.49899959564209 C-2.4800000190734863,-8.439000129699707 -4.590000152587891,-7.508999824523926 -6.150000095367432,-5.859000205993652 C-7.71999979019165,-4.218999862670898 -8.550000190734863,-2.059000015258789 -8.489999771118164,0.210999995470047 C-8.4399995803833,2.4809999465942383 -7.5,4.591000080108643 -5.860000133514404,6.160999774932861 C-4.21999979019165,7.730999946594238 -2.049999952316284,8.560999870300293 0.20999999344348907,8.50100040435791 C2.4800000190734863,8.451000213623047 4.590000152587891,7.511000156402588 6.159999847412109,5.870999813079834 C7.730000019073486,4.230999946594238 8.5600004196167,2.071000099182129 8.5,-0.19900000095367432 C8.5,-0.19900000095367432 8.5,-0.19900000095367432 8.5,-0.19900000095367432 C8.449999809265137,-2.4690001010894775 7.510000228881836,-4.578999996185303 5.869999885559082,-6.14900016784668 C4.269999980926514,-7.669000148773193 2.200000047683716,-8.49899959564209 0.009999999776482582,-8.49899959564209z"/></g></g></g></g></svg>